HIERARCHY
ROOT Hips
{
    OFFSET 0.000000 0.000000 0.000000
    CHANNELS 6 Xposition Yposition Zposition Zrotation Xrotation Yrotation
    JOINT Spine
    {
        OFFSET -0.000000 7.979263 0.000000
        CHANNELS 3 Zrotation Xrotation Yrotation
        JOINT Spine1
        {
            OFFSET -0.000000 24.719021 0.000000
            CHANNELS 3 Zrotation Xrotation Yrotation
            JOINT Neck
            {
                OFFSET -0.000000 24.617504 2.237955
                CHANNELS 3 Zrotation Xrotation Yrotation
                JOINT Head
                {
                    OFFSET -0.000000 13.623132 -1.946162
                    CHANNELS 3 Zrotation Xrotation Yrotation
                    End Site
                    {
                        OFFSET -0.000000 24.327021 0.000000
                    }
                }
            }
            JOINT LeftShoulder
            {
                OFFSET 3.885773 23.018444 -0.302444
                CHANNELS 3 Zrotation Xrotation Yrotation
                JOINT LeftArm
                {
                    OFFSET 10.447750 0.000000 0.000000
                    CHANNELS 3 Zrotation Xrotation Yrotation
                    JOINT LeftForeArm
                    {
                        OFFSET 29.090096 0.000000 0.000000
                        CHANNELS 3 Zrotation Xrotation Yrotation
                        JOINT LeftHand
                        {
                            OFFSET 28.893339 0.000000 0.000000
                            CHANNELS 3 Zrotation Xrotation Yrotation
                            End Site
                            {
                                OFFSET 14.596213 0.000000 0.000000
                            }
                        }
                    }
                }
            }
            JOINT RightShoulder
            {
                OFFSET -3.864586 23.018444 -0.302444
                CHANNELS 3 Zrotation Xrotation Yrotation
                JOINT RightArm
                {
                    OFFSET -10.447750 0.000000 0.000000
                    CHANNELS 3 Zrotation Xrotation Yrotation
                    JOINT RightForeArm
                    {
                        OFFSET -29.090096 0.000000 0.000000
                        CHANNELS 3 Zrotation Xrotation Yrotation
                        JOINT RightHand
                        {
                            OFFSET -28.893339 0.000000 0.000000
                            CHANNELS 3 Zrotation Xrotation Yrotation
                            End Site
                            {
                                OFFSET -14.596213 0.000000 0.000000
                            }
                        }
                    }
                }
            }
        }
    }
    JOINT LeftUpLeg
    {
        OFFSET 9.730808 0.000000 0.000000
        CHANNELS 3 Zrotation Xrotation Yrotation
        JOINT LeftLeg
        {
            OFFSET -0.000000 -34.800129 0.000000
            CHANNELS 3 Zrotation Xrotation Yrotation
            JOINT LeftFoot
            {
                OFFSET -0.000000 -44.597416 0.000000
                CHANNELS 3 Zrotation Xrotation Yrotation
                JOINT LeftToeBase
                {
                    OFFSET -0.000000 -6.325025 14.596213
                    CHANNELS 3 Zrotation Xrotation Yrotation
                    End Site
                    {
                        OFFSET -0.000000 0.000000 3.892323
                    }
                }
            }
        }
    }
    JOINT RightUpLeg
    {
        OFFSET -9.730808 0.000000 0.000000
        CHANNELS 3 Zrotation Xrotation Yrotation
        JOINT RightLeg
        {
            OFFSET -0.000000 -34.800129 0.000000
            CHANNELS 3 Zrotation Xrotation Yrotation
            JOINT RightFoot
            {
                OFFSET -0.000000 -44.597416 0.000000
                CHANNELS 3 Zrotation Xrotation Yrotation
                JOINT RightToeBase
                {
                    OFFSET -0.000000 -6.325025 14.596213
                    CHANNELS 3 Zrotation Xrotation Yrotation
                    End Site
                    {
                        OFFSET -0.000000 0.000000 3.892323
                    }
                }
            }
        }
    }
}
MOTION
Frames:    10
Frame Time:    0.008333
47.690208    72.492020    41.729004    -36.711853    -4.066870    88.544777    3.145861    10.278712    0.499225    -1.583393    -14.048341    0.587149    -9.589744    7.929161    -2.774830    10.987413    -3.442426    -0.247834    1.888582    1.903738    -10.104202    -57.842342    20.627733    10.180176    6.828559    -26.982578    -54.842941    -7.709652    -22.401260    -21.929197    -6.272464    1.320197    3.129181    60.838577    26.111267    5.177935    -0.903248    -26.327631    36.063423    -13.408731    -28.733500    25.168705    4.405633    -68.646309    8.321144    13.540759    68.273071    -10.844314    -2.930459    -33.361309    7.993331    0.000000    0.000000    0.000000    15.969777    -65.561081    3.394969    -18.212711    68.191551    6.365374    5.856477    -29.034384    2.842544    0.000000    0.000000    0.000000    
48.727036    72.635406    41.680630    -35.729530    -4.124160    88.691238    2.507251    11.089584    0.521714    -0.062247    -16.350897    0.756161    -10.138129    8.806686    -2.556164    10.587631    -1.345653    -0.317664    0.434682    2.420986    -11.833658    -52.818974    18.784029    8.486926    6.062055    -27.372358    -57.769321    -8.947216    -22.757580    -22.064100    -6.692295    1.699107    4.495504    56.889164    23.150040    7.355939    -0.900356    -25.776377    38.505348    -11.112286    -27.869123    26.838766    3.522822    -66.754349    7.090950    13.098371    68.119522    -10.577682    -2.889723    -33.282570    8.363832    0.000000    0.000000    0.000000    15.605855    -63.791939    3.256178    -18.370897    68.081963    6.578992    5.858844    -28.464128    2.575215    0.000000    0.000000    0.000000    
49.853249    72.835060    41.680630    -34.838799    -4.221445    88.808998    2.063899    11.660116    0.645405    0.876659    -18.705832    1.000571    -10.608071    11.358500    -2.384214    11.038416    -1.394075    -0.280849    0.676948    2.599537    -14.707961    -49.333828    15.213965    7.676246    5.169652    -26.707012    -60.508308    -9.823816    -22.236044    -21.790859    -6.796045    1.853644    5.851028    53.058949    19.664030    8.877718    0.213541    -25.003273    41.253464    -10.353395    -27.375422    27.739878    2.993774    -64.939407    6.491013    13.463105    67.869965    -10.574541    -3.611256    -32.989754    7.805367    0.000000    0.000000    0.000000    15.547404    -61.993820    3.407730    -18.607328    67.848747    6.661485    7.024148    -27.884081    2.758358    0.000000    0.000000    0.000000    
50.985996    73.109451    41.620846    -33.931217    -4.213235    89.019859    1.814817    11.980871    0.681846    1.471443    -20.166193    1.133937    -11.059363    10.999189    -2.283519    11.338077    1.456964    -0.348870    0.172855    1.645148    -15.994466    -44.744923    14.009526    6.399436    5.532988    -26.355976    -62.592026    -11.884107    -21.160650    -21.935341    -7.494521    1.096026    6.839200    49.900169    17.508970    10.226445    -0.047498    -24.315805    43.491219    -9.411624    -26.430275    28.086721    2.311835    -63.008385    5.753291    13.259124    67.555923    -11.328736    -3.443265    -32.546173    8.852813    0.000000    0.000000    0.000000    14.948956    -60.202488    3.176600    -18.232288    67.638741    6.418351    7.339141    -26.958464    2.596770    0.000000    0.000000    0.000000    
52.190346    73.435707    41.595566    -32.939213    -4.313275    89.169289    1.567027    12.203422    0.753183    2.189098    -21.287235    1.332198    -10.750679    11.806841    -2.290950    10.484611    2.132033    -0.625845    0.189197    1.057106    -16.848015    -40.180527    11.578834    4.311153    4.954089    -24.887375    -64.894310    -12.747111    -19.726988    -21.474493    -8.270823    0.628949    7.918442    46.468369    15.853536    11.563085    -0.446736    -24.116138    45.638805    -9.317835    -26.060442    28.078545    2.236589    -60.905624    5.733756    13.256748    67.058884    -11.182020    -4.091463    -31.947014    8.324074    0.000000    0.000000    0.000000    14.559830    -58.188919    2.926513    -18.021786    67.163124    5.990510    8.268902    -25.796974    2.842369    0.000000    0.000000    0.000000    
53.497589    73.865387    41.570736    -31.803791    -4.394807    89.500435    1.756588    12.444103    0.625094    2.111883    -22.124855    1.229561    -10.788174    11.767996    -2.222644    10.525919    3.604074    -0.677970    0.623109    0.536021    -17.892618    -36.357235    10.391648    2.920019    5.993994    -25.213806    -66.686470    -14.752489    -18.952003    -21.467058    -8.499157    -0.229814    8.544207    43.074837    14.765285    12.783353    -1.335252    -23.918007    47.708675    -8.710829    -25.338066    27.714222    2.080750    -58.380608    5.710697    13.104929    66.144844    -11.167478    -4.729842    -31.232809    7.850047    0.000000    0.000000    0.000000    13.634935    -55.832916    2.366323    -16.792049    66.479584    4.812071    9.298573    -24.550751    3.154158    0.000000    0.000000    0.000000    
54.833828    74.382034    41.456436    -31.191031    -4.314010    89.998123    1.837224    11.977369    0.410266    2.172796    -22.566044    1.036618    -11.494799    11.674297    -2.218910    11.334438    4.716461    -0.652323    1.365467    -0.005107    -18.658890    -32.751797    8.921898    1.325059    6.862817    -25.541824    -68.741608    -15.796459    -18.475313    -20.851868    -9.122915    -1.064240    9.078981    39.505203    13.410522    14.171083    -2.773727    -23.535324    49.606365    -7.706384    -24.080856    27.363089    1.387266    -56.253170    4.799118    11.739000    64.971176    -9.601881    -5.329177    -30.218687    7.258816    0.000000    0.000000    0.000000    12.208897    -54.048256    1.232522    -15.798656    65.686874    3.975536    10.060342    -22.969891    3.581750    0.000000    0.000000    0.000000    
56.222420    74.960281    41.366753    -30.562492    -4.202816    90.368996    1.970067    11.405795    0.118103    1.962789    -22.742882    0.709541    -11.847711    11.157982    -2.277884    11.693326    6.277793    -0.763820    2.047404    -0.235464    -19.487595    -28.947826    7.465786    0.363256    7.408850    -26.041758    -70.829773    -15.825377    -18.536058    -20.216280    -9.736470    -1.849901    10.053422    36.513664    12.131066    15.196040    -4.319240    -23.579306    51.278225    -6.898662    -23.158718    26.345161    1.190123    -53.963127    4.671067    10.780771    63.597645    -8.847976    -6.054582    -29.058496    6.701263    0.000000    0.000000    0.000000    10.977992    -52.037971    0.390851    -14.466640    64.653503    3.017031    10.699679    -21.327162    3.758698    0.000000    0.000000    0.000000    
55.937881    75.797691    41.488289    -37.415310    -5.092231    91.306610    2.872981    4.559729    -0.294318    1.495579    -24.659895    0.146642    -11.533265    11.635973    -2.502236    11.691049    7.250228    -1.163855    2.959191    -0.306751    -20.948080    -25.641773    5.372686    -0.467480    7.538012    -25.874474    -72.883224    -15.503319    -18.238205    -19.412268    -9.499043    -1.695135    10.243521    32.405849    11.155601    16.424290    -5.818967    -23.760286    52.616817    -5.898617    -22.343561    25.589727    0.259189    -61.598621    1.798384    9.158627    63.347633    -5.954259    -7.844043    -25.473433    4.806155    0.000000    0.000000    0.000000    11.904872    -59.390057    0.813449    -13.945077    64.338295    1.763644    11.390040    -17.643549    4.323083    0.000000    0.000000    0.000000    
59.444965    76.567307    41.171753    -29.640697    -3.749655    91.340355    1.430621    10.001143    0.008657    1.787991    -23.648664    0.508246    -11.080646    11.157783    -2.704855    11.178712    8.846988    -1.544279    3.588557    -1.340085    -22.469437    -22.510654    4.060891    -0.723639    7.253246    -25.794609    -74.919434    -14.910467    -18.335030    -18.830780    -9.994985    -2.506387    10.649888    28.964354    10.716263    16.677855    -6.869088    -24.178900    54.257439    -5.308237    -21.996971    24.495968    0.532071    -48.819733    4.262264    8.721944    59.402126    -6.885855    -8.230721    -25.238091    4.826004    0.000000    0.000000    0.000000    7.968568    -47.455486    -1.776135    -11.125967    61.254166    0.274649    11.744966    -16.971189    4.213143    0.000000    0.000000    0.000000    
